<svg xmlns="http://www.w3.org/2000/svg" width="348" height="348" viewBox="0 0 348 348" version="1.1">
	<path d="M 116 46 L 116 66 132.500 66 L 149 66 149 59.500 L 149 53 139.500 53 L 130 53 130 46.591 L 130 40.183 139.250 40.341 L 148.500 40.500 148.794 33.250 L 149.088 26 132.544 26 L 116 26 116 46 M 162 32.725 L 162 39.450 168.723 46.225 L 175.446 53 168.723 53 L 162 53 162 59.500 L 162 66 179 66 L 196 66 196 59.775 L 196 53.550 189.250 46.712 L 182.500 39.874 189 40.124 L 195.500 40.375 195.794 33.187 L 196.088 26 179.044 26 L 162 26 162 32.725 M 209 33.223 L 209 40.446 215.221 46.723 L 221.442 53 215.221 53 L 209 53 209 59.500 L 209 66 225.500 66 L 242 66 242 59.244 L 242 52.488 236 47.164 C 232.700 44.236, 230 41.480, 230 41.040 C 230 40.600, 231.912 40.332, 234.250 40.444 C 241.788 40.808, 242 40.602, 242 32.883 L 242 26 225.500 26 L 209 26 209 33.223 M 73.388 92.250 C 76.969 130.730, 87.613 246.742, 89.696 270 C 91.149 286.225, 92.605 299.821, 92.932 300.213 C 93.445 300.829, 119.127 307.953, 166.229 320.547 L 178.959 323.950 221.690 312.431 C 245.192 306.096, 264.588 300.745, 264.793 300.540 C 265.202 300.131, 266.013 291.634, 275.532 188 C 279.094 149.225, 282.682 110.406, 283.504 101.735 C 284.327 93.065, 285 85.752, 285 85.485 C 285 85.218, 237.235 85, 178.856 85 L 72.713 85 73.388 92.250 M 145.461 128.763 L 111.421 129.026 113.142 141.763 C 114.088 148.768, 114.893 154.606, 114.931 154.736 C 114.969 154.866, 129.738 155.091, 147.750 155.236 L 180.500 155.500 149 168.615 L 117.500 181.729 117.664 186.115 C 117.754 188.527, 118.124 194.344, 118.486 199.041 L 119.145 207.582 133.822 207.668 C 141.895 207.715, 162.387 207.809, 179.361 207.877 L 210.222 208 209.513 224.250 C 209.123 233.188, 208.510 240.791, 208.152 241.147 C 207.793 241.502, 200.902 243.656, 192.838 245.933 L 178.177 250.072 164.515 246.629 C 157.001 244.735, 150.595 242.928, 150.280 242.613 C 149.789 242.123, 148.254 229.057, 148.063 223.750 C 148.006 222.172, 146.660 222, 134.371 222 L 120.742 222 121.336 226.750 C 121.662 229.362, 122.454 238.250, 123.097 246.500 C 123.739 254.750, 124.543 261.810, 124.882 262.189 C 125.222 262.568, 137.592 266.460, 152.372 270.838 L 179.244 278.799 205.829 271.070 C 231.961 263.474, 232.426 263.292, 233.121 260.421 C 233.510 258.814, 234.567 248.500, 235.471 237.500 C 237.230 216.086, 237.490 213.126, 239.013 197.144 C 239.556 191.448, 240 185.717, 240 184.409 L 240 182.030 210.275 181.765 L 180.549 181.500 209.525 169.142 C 225.461 162.345, 239.448 156.190, 240.606 155.464 C 242.336 154.378, 242.833 152.751, 243.398 146.322 C 243.776 142.020, 244.343 136.219, 244.659 133.432 L 245.233 128.364 212.366 128.432 C 194.290 128.469, 164.182 128.618, 145.461 128.763" stroke="none" fill="#007bff" fill-rule="evenodd"/>
</svg>