<svg xmlns="http://www.w3.org/2000/svg" width="348" height="300" viewBox="0 0 348 300" version="1.1">
	<path d="M 100 39.500 L 100 57 106 57 L 112 57 112 51 L 112 45 117 45 L 122 45 122 51 L 122 57 128 57 L 134 57 134 39.500 L 134 22 128 22 L 122 22 122 27.500 L 122 33 117 33 L 112 33 112 27.500 L 112 22 106 22 L 100 22 100 39.500 M 139 28 L 139 34 144 34 L 149 34 149 45.500 L 149 57 155 57 L 161 57 161 45.500 L 161 34 166 34 L 171 34 171 28 L 171 22 155 22 L 139 22 139 28 M 176 39.452 L 176 57 181.460 57 L 186.919 57 187.210 48.828 L 187.500 40.657 191.376 46.503 L 195.253 52.350 198.876 46.503 L 202.500 40.656 202.790 48.828 L 203.081 57 209.040 57 L 215 57 215 39.500 L 215 22 208.622 22 L 202.244 22 198.911 27.500 C 197.077 30.525, 195.335 32.992, 195.039 32.982 C 194.742 32.973, 193.133 30.610, 191.461 27.732 L 188.423 22.500 182.211 22.202 L 176 21.905 176 39.452 M 220 39.500 L 220 57 234 57 L 248 57 248 51 L 248 45 240 45 L 232 45 232 33.500 L 232 22 226 22 L 220 22 220 39.500 M 83.681 76.250 C 83.920 78.588, 87.646 120.243, 91.960 168.818 C 96.274 217.393, 99.960 257.263, 100.152 257.417 C 100.343 257.571, 117.009 262.274, 137.186 267.868 L 173.871 278.038 210.686 267.856 C 230.934 262.255, 247.653 257.556, 247.841 257.412 C 248.388 256.994, 264.713 73.578, 264.277 72.750 C 264.060 72.338, 223.239 72, 173.564 72 L 83.246 72 83.681 76.250 M 117 111.337 C 117 113.232, 121.809 167.420, 122.539 173.750 L 123.144 179 162.368 179 L 201.592 179 200.278 193.185 C 199.555 200.986, 198.787 207.546, 198.570 207.763 C 198.354 207.980, 192.674 209.650, 185.949 211.474 L 173.722 214.791 161.832 211.534 C 155.293 209.742, 149.717 208.050, 149.440 207.774 C 149.164 207.497, 148.703 204.848, 148.415 201.886 C 148.128 198.924, 147.672 195.037, 147.401 193.250 L 146.909 190 135.455 190 C 127.628 190, 124 190.357, 124 191.126 C 124 194.005, 127.203 225.536, 127.528 225.862 C 127.731 226.064, 138.246 229.115, 150.894 232.641 L 173.891 239.052 190.695 234.462 C 219.725 226.535, 221 226.100, 221 224.124 C 221 223.139, 222.348 207.520, 223.996 189.416 C 225.644 171.312, 226.994 156.387, 226.996 156.250 C 226.998 156.113, 208.378 156, 185.617 156 L 144.235 156 143.585 148.250 C 143.228 143.988, 142.685 138.813, 142.380 136.750 L 141.824 133 185.318 133 L 228.812 133 229.382 128.250 C 229.696 125.638, 230.241 120.463, 230.593 116.750 L 231.233 110 174.116 110 C 127.105 110, 117 110.237, 117 111.337" stroke="none" fill="#000000" fill-rule="evenodd"/>
</svg>