<svg xmlns="http://www.w3.org/2000/svg" width="348" height="348" viewBox="0 0 348 348" version="1.1">
	<path d="M 155 28.500 L 155 44 145.500 44 L 136 44 136 50 L 136 56 151.500 56 L 167 56 167 34.500 L 167 13 161 13 L 155 13 155 28.500 M 173 26.500 L 173 40 187.500 40 C 201.333 40, 202 40.092, 202 42 C 202 43.908, 201.333 44, 187.500 44 L 173 44 173 50 L 173 56 193 56 L 213 56 213 42.500 L 213 29 198.430 29 C 183.893 29, 183.862 28.995, 184.180 26.750 C 184.495 24.534, 184.714 24.501, 198.750 24.557 L 213 24.613 213 18.807 L 213 13 193 13 L 173 13 173 26.500 M 60.002 78.250 C 60.003 79.487, 61.332 95.800, 62.956 114.500 C 64.579 133.200, 66.383 154.350, 66.966 161.500 C 67.548 168.650, 68.235 176.525, 68.493 179 C 68.751 181.475, 69.644 191.600, 70.479 201.500 C 71.313 211.400, 72.215 221.750, 72.484 224.500 C 72.753 227.250, 73.876 240.300, 74.981 253.500 C 76.085 266.700, 77.236 280.200, 77.537 283.500 C 77.838 286.800, 78.456 293.677, 78.909 298.783 C 79.362 303.889, 79.905 308.236, 80.116 308.444 C 80.327 308.653, 101.554 314.732, 127.287 321.954 L 174.073 335.084 219.287 322.494 C 244.154 315.569, 265.415 309.529, 266.534 309.072 C 268.408 308.305, 268.708 306.528, 270.366 286.370 C 271.356 274.342, 272.337 262.925, 272.548 261 C 272.758 259.075, 273.410 251.875, 273.997 245 C 275.169 231.265, 275.438 228.151, 276.985 210.500 C 277.563 203.900, 278.918 188.150, 279.996 175.500 C 283.017 140.027, 286.033 104.906, 287.359 89.750 L 288.562 76 174.281 76 L 60 76 60.002 78.250 M 140 187.500 C 140 226.279, 139.636 251, 139.064 251 C 138.549 251, 129.150 248.525, 118.178 245.500 C 107.206 242.475, 97.727 240, 97.114 240 C 96.352 240, 96 244.112, 96 253 C 96 260.150, 96.113 266, 96.252 266 C 96.390 266, 111.915 270.205, 130.752 275.345 L 165 284.691 165 204.345 L 165 124 152.500 124 L 140 124 140 187.500 M 183 173.067 C 183 219.316, 183.101 222.107, 184.750 221.651 C 188.355 220.654, 222.969 215.638, 223.330 216.060 C 223.537 216.302, 223.109 221.900, 222.378 228.500 C 221.647 235.100, 220.944 241.997, 220.815 243.827 C 220.686 245.657, 219.888 247.513, 219.040 247.951 C 218.193 248.389, 209.738 250.904, 200.250 253.541 L 183 258.333 183 271.596 L 183 284.859 189.750 282.912 C 193.463 281.841, 206.713 278.160, 219.195 274.732 L 241.891 268.500 242.526 262.500 C 242.875 259.200, 244.603 240.863, 246.365 221.750 C 249.323 189.670, 249.439 187, 247.873 187 C 246.394 187, 218.306 191.135, 210.750 192.466 L 208 192.950 208 170.994 L 208 149.038 230.250 148.769 L 252.500 148.500 253.187 140.500 C 253.564 136.100, 254.071 130.588, 254.314 128.250 L 254.754 124 218.877 124 L 183 124 183 173.067" stroke="none" fill="#fcdb03" fill-rule="evenodd"/>
</svg>